<?xml version="1.0" encoding="iso-8859-1"?>
<!-- Generator: Adobe Illustrator 19.0.0, SVG Export Plug-In . SVG Version: 6.00 Build 0)  -->
<svg version="1.1" id="Capa_1" xmlns="http://www.w3.org/2000/svg" xmlns:xlink="http://www.w3.org/1999/xlink" x="0px" y="0px"
	 viewBox="0 0 490.6 490.6" style="enable-background:new 0 0 490.6 490.6;" xml:space="preserve">
<g>
	<g>
		<g>
			<path d="M0,428.4v-22.8h29.9h1.6V170.1c0-18.5,15-33.6,33.6-33.6H167c-0.4,4.6-0.7,9.2-0.7,13.9c0,10.8,1.2,21.4,3.5,31.9H77.3
				v223.3h117.2v2.3c0,7,5.7,12.7,12.7,12.7h64.3c7,0,12.7-5.7,12.7-12.7v-2.3h117.3v-98.8c16.4-4.6,31.8-11.3,45.8-19.7v118.5h1.6
				h29.9v22.8c0,20.5-16.6,37.1-37.1,37.1h-35.4H72.6H37.1C16.6,465.5,0,448.9,0,428.4z M171.3,325c0,8.7,7,15.7,15.7,15.7
				s15.7-7,15.7-15.7s-7-15.7-15.7-15.7C178.4,309.3,171.3,316.3,171.3,325z M223.7,325c0,8.7,7,15.7,15.7,15.7s15.7-7,15.7-15.7
				s-7-15.7-15.7-15.7S223.7,316.3,223.7,325z M276.1,325c0,8.7,7,15.7,15.7,15.7s15.7-7,15.7-15.7s-7-15.7-15.7-15.7
				S276.1,316.3,276.1,325z M347.8,275.5c-28.6,0-55.2-7.4-77.6-20.1c-20.1,12.1-41.9,11.6-54.6,9.9c-3.6-0.5-4.6-5.2-1.5-7.2
				c12.2-8,18.9-19.2,22.6-29.1c-19.8-21.5-31.7-48.9-31.7-78.7c0-69.2,63.9-125.2,142.8-125.2s142.8,56.1,142.8,125.2
				C490.6,219.5,426.7,275.5,347.8,275.5z M384.4,150.3c0,8.7,7,15.7,15.7,15.7s15.7-7,15.7-15.7s-7-15.7-15.7-15.7
				S384.4,141.6,384.4,150.3z M311.1,150.3c0-8.7-7-15.7-15.7-15.7s-15.7,7-15.7,15.7s7,15.7,15.7,15.7S311.1,159,311.1,150.3z
				 M347.8,166c8.7,0,15.7-7,15.7-15.7s-7-15.7-15.7-15.7s-15.7,7-15.7,15.7S339.1,166,347.8,166z"/>
		</g>
	</g>
</g>
<g>
</g>
<g>
</g>
<g>
</g>
<g>
</g>
<g>
</g>
<g>
</g>
<g>
</g>
<g>
</g>
<g>
</g>
<g>
</g>
<g>
</g>
<g>
</g>
<g>
</g>
<g>
</g>
<g>
</g>
</svg>
